<svg width="157" height="177" viewBox="0 0 157 177" fill="none" xmlns="http://www.w3.org/2000/svg">
    <rect x="20" y="5" width="71" height="93" rx="16" fill="#FF9228"/>
    <rect opacity="0.2" x="54.5464" width="71" height="93" rx="16" transform="rotate(25.1651 54.5464 0)" fill="#FF9228"/>
    <rect x="30" y="17" width="21" height="21" rx="6" fill="white"/>
    <path d="M33 53H78" stroke="white" stroke-width="5" stroke-linecap="square"/>
    <path d="M33 68H78" stroke="white" stroke-width="5" stroke-linecap="square"/>
    <path d="M33 83H61" stroke="white" stroke-width="5" stroke-linecap="square"/>
    <circle cx="84.9519" cy="98.2721" r="22.3052" transform="rotate(28.6511 84.9519 98.2721)" fill="#423273" stroke="#8A7AB8" stroke-width="8"/>
    <path d="M74.1337 118.62L66.4177 132.742" stroke="#8A7AB8" stroke-width="8" stroke-linecap="round"/>
    <path d="M72.4046 122.1L69.4819 142.613L56.3603 135.649L72.4046 122.1Z" fill="#8A7AB8"/>
    <path d="M53.8685 140.281L66.8555 147.173L59.2925 160.756C57.3174 164.303 52.8089 165.636 49.2227 163.732C45.6364 161.829 44.3304 157.411 46.3055 153.863L53.8685 140.281Z" fill="#3F2787"/>
    <path d="M90.202 93.3179L79.9484 104.066" stroke="white" stroke-width="5" stroke-linecap="round"/>
    <path d="M79.7015 93.5649L90.4497 103.819" stroke="white" stroke-width="5" stroke-linecap="round"/>
    <circle opacity="0.1" cx="4.2038" cy="4.2038" r="4.2038" transform="matrix(1 0 0 -1 107.376 62.4768)" fill="#27308C"/>
    <circle opacity="0.2" cx="2.52228" cy="2.52228" r="2.52228" transform="matrix(1 0 0 -1 36.7524 176.82)" fill="#27308C"/>
    <path d="M9.91167 38.8127C8.76434 35.9552 11.1406 32.9273 14.1889 33.3624L19.2126 34.0795C22.2609 34.5146 23.6951 38.0865 21.7941 40.5088L18.6612 44.501C16.7602 46.9233 12.9498 46.3794 11.8025 43.5219L9.91167 38.8127Z" fill="#FF9E87"/>
    <path d="M7.24412 119.96C6.23041 117.435 8.32989 114.76 11.0232 115.144C13.7165 115.529 14.9836 118.684 13.304 120.825C11.6244 122.965 8.25782 122.484 7.24412 119.96Z" fill="#FF9E87"/>
    <path d="M131.227 100.31C129.256 95.4007 133.338 90.1985 138.575 90.9461C143.812 91.6936 146.276 97.8303 143.01 101.992C139.744 106.154 133.198 105.219 131.227 100.31Z" fill="#FF9E87"/>
    <path opacity="0.2" d="M99.1748 149.414C97.015 147.219 98.041 143.509 101.022 142.736L105.934 141.462C108.914 140.689 111.614 143.433 110.793 146.4L109.441 151.292C108.62 154.259 104.894 155.226 102.734 153.031L99.1748 149.414Z" fill="#FF9E87"/>
    <path opacity="0.3" d="M137.957 41.2901C134.323 46.68 134.097 30.0684 128.707 26.4342C123.317 22.8 108.342 20.5437 111.977 15.1537C115.611 9.76366 132.929 13.0564 138.319 16.6906C143.709 20.3248 141.591 35.9001 137.957 41.2901Z" fill="#03A9F4"/>
    </svg>
    