<svg width="24" height="25" viewBox="0 0 24 25" fill="none" xmlns="http://www.w3.org/2000/svg">
    <path d="M18.9167 15.2217V20.5117C18.9167 21.2021 18.357 21.7617 17.6667 21.7617H14.4167V17.6138C14.4167 16.6473 13.6332 15.8638 12.6667 15.8638H11.3333C10.3668 15.8638 9.58333 16.6473 9.58333 17.6138V21.7617H6.33333C5.64298 21.7617 5.08333 21.2021 5.08333 20.5117V15.2217C5.08333 14.776 4.72206 14.4148 4.27642 14.4148H4.25219C3.42255 14.4148 2.75 13.7422 2.75 12.9126C2.75 12.5269 2.89838 12.1559 3.1644 11.8766L11.1026 3.5415C11.5934 3.02617 12.4147 3.02397 12.9083 3.53665L20.8091 11.7438C21.092 12.0376 21.25 12.4297 21.25 12.8376V12.8884C21.25 13.7314 20.5666 14.4148 19.7236 14.4148C19.2779 14.4148 18.9167 14.776 18.9167 15.2217Z" stroke="#130160" stroke-width="1.5"/>
    </svg>
    